# xmcd
# 
# Track frame offsets:
#     150
#     41920
#     68742
#     98204
#     129016
#     143333
#     160540
#     197764
#     203057
#     216750
# 
# Disc length: 2962
# 
# Revision: 0
# Processed by: cddbd v1.5.2PL0 Copyright (c) Steve Scherf et al.
# Submitted via: fre:ac v1.0.31
# 
DISCID=820b900a
DTITLE=Dave Brubeck - Brubeck - Bold and Brassy
DYEAR=2016
DGENRE=Jazz
TTITLE0=On the  Threshold of Liberty
TTITLE1=Polishing the Brass
TTITLE2=In Your Own Sweet Way
TTITLE3=The ThingsYou Don't Remember
TTITLE4=First Concerto for Bass Trombone
TTITLE5=Upon this Rock
TTITLE6=The Gates of Justice I: Open the Gates
TTITLE7=The Gates of Justice II: Open the Gates
TTITLE8=The Gates of Justice III: Open the Gates (Reprise)
TTITLE9=LORD, LORD (From "The Gates of Justice")
EXTD=
EXTT0=
EXTT1=
EXTT2=
EXTT3=
EXTT4=
EXTT5=
EXTT6=Psalm 118:19-23\nIsaiah 62:10\nIsaiah: 57:14
EXTT7=Psalm 118:19-23\nIsaiah 58:6-7,9,12\n
EXTT8=
EXTT9=Text by Iola Brubeck from Kings 8:27-30\n"LORD, LORD, what will tomorrow bring?"
PLAYORDER=
